<svg width="1600" height="900" viewBox="0 0 1600 900" fill="none" xmlns="http://www.w3.org/2000/svg">
  <defs>
    <linearGradient id="blue" x1="0" x2="0" y1="0" y2="1"><stop stop-color="#2563EB" stop-opacity=".42"/><stop offset="1" stop-color="#2563EB" stop-opacity="0"/></linearGradient>
    <linearGradient id="cardBlue" x1="0" x2="1" y1="0" y2="1"><stop stop-color="#15243F"/><stop offset="1" stop-color="#131722"/></linearGradient>
    <linearGradient id="cardViolet" x1="0" x2="1" y1="0" y2="1"><stop stop-color="#251C38"/><stop offset="1" stop-color="#161620"/></linearGradient>
    <linearGradient id="cardOrange" x1="0" x2="1" y1="0" y2="1"><stop stop-color="#352516"/><stop offset="1" stop-color="#191713"/></linearGradient>
    <linearGradient id="cardGreen" x1="0" x2="1" y1="0" y2="1"><stop stop-color="#12362C"/><stop offset="1" stop-color="#131B1A"/></linearGradient>
  </defs>
  <rect width="1600" height="900" fill="#0B0B0C"/>
  <rect width="255" height="900" fill="#09090A" stroke="#29292C"/>
  <rect x="22" y="21" width="38" height="38" rx="10" fill="#0A0A0A"/>
  <path d="m29 47 12-21 12 21h-5.5L41 35.5 34.5 47H29Z" fill="white"/><path d="M37.8 43h6.4" stroke="white" stroke-width="2" stroke-linecap="round"/><circle cx="51" cy="28" r="2.6" fill="#85F3C2"/>
  <text x="73" y="40" fill="white" font-family="Arial, sans-serif" font-size="17" font-weight="700">Token Atlas</text><text x="73" y="57" fill="#8A8D95" font-family="Arial, sans-serif" font-size="11">本地 token 情报图谱</text>
  <path d="M0 78.5h255" stroke="#29292C"/>
  <text x="27" y="112" fill="#9B9DA4" font-family="Arial, sans-serif" font-size="11" font-weight="700">工作台</text>
  <rect x="17" y="126" width="220" height="40" rx="11" fill="#28282B"/><rect x="30" y="138" width="13" height="13" rx="2" stroke="#EDEEF1" stroke-width="1.5"/><text x="57" y="152" fill="white" font-family="Arial, sans-serif" font-size="14" font-weight="700">概览</text>
  <path d="M31 194h13M31 188v6M37.5 181v13M44 185v9" stroke="#B6B7BC" stroke-width="1.5" stroke-linecap="round"/><text x="57" y="194" fill="#D4D5D8" font-family="Arial, sans-serif" font-size="14" font-weight="600">用量趋势</text>
  <text x="27" y="244" fill="#9B9DA4" font-family="Arial, sans-serif" font-size="11" font-weight="700">数据明细</text><text x="57" y="284" fill="#D4D5D8" font-family="Arial, sans-serif" font-size="14" font-weight="600">会话记录</text><text x="57" y="328" fill="#D4D5D8" font-family="Arial, sans-serif" font-size="14" font-weight="600">原始数据</text>
  <rect x="17" y="818" width="220" height="61" rx="12" fill="#141416" stroke="#29292C"/><text x="35" y="845" fill="#E0E1E4" font-family="Arial, sans-serif" font-size="12" font-weight="700">本地读取模式</text><text x="35" y="865" fill="#8D9098" font-family="Arial, sans-serif" font-size="10">日志只在本机 ccusage 解析，不会上载内容。</text>
  <rect x="255" width="1345" height="78" fill="#0E0E0F" stroke="#29292C"/><text x="285" y="45" fill="white" font-family="Arial, sans-serif" font-size="18" font-weight="700">Token Atlas</text>
  <rect x="1320" y="25" width="108" height="28" rx="14" fill="#15241E"/><circle cx="1336" cy="39" r="3.5" fill="#10B981"/><text x="1345" y="43" fill="#E1F4EA" font-family="Arial, sans-serif" font-size="11" font-weight="700">本地实时数据</text><rect x="1440" y="25" width="77" height="28" rx="8" fill="#18181A" stroke="#343438"/><text x="1462" y="43" fill="#D4D4D8" font-family="Arial, sans-serif" font-size="11" font-weight="700">刷新</text>
  <rect x="308" y="108" width="1242" height="148" rx="16" fill="#101011" stroke="#29292C"/>
  <rect x="333" y="126" width="46" height="22" rx="11" fill="#171719" stroke="#36363A"/><text x="344" y="141" fill="#F4F4F5" font-family="Arial, sans-serif" font-size="10" font-weight="700">✓ LIVE</text><rect x="386" y="126" width="60" height="22" rx="11" fill="#28282B"/><text x="399" y="141" fill="#E4E4E7" font-family="Arial, sans-serif" font-size="10" font-weight="700">ccusage</text>
  <text x="333" y="180" fill="white" font-family="Arial, sans-serif" font-size="28" font-weight="700">用量概览</text><text x="333" y="205" fill="#999BA2" font-family="Arial, sans-serif" font-size="13">汇总本机日志与外部设备的 ccusage JSON；金额为本地估算值。</text>
  <rect x="1106" y="198" width="161" height="35" rx="9" fill="#18181A" stroke="#36363A"/><text x="1122" y="220" fill="#E4E4E7" font-family="Arial, sans-serif" font-size="12" font-weight="700">综合数据</text><path d="m1245 212 5 5 5-5" stroke="#A4A5AB" stroke-width="1.5"/>
  <rect x="1278" y="198" width="113" height="35" rx="9" fill="#18181A" stroke="#36363A"/><text x="1295" y="220" fill="#E4E4E7" font-family="Arial, sans-serif" font-size="12" font-weight="700">仅 Codex</text><rect x="1402" y="198" width="118" height="35" rx="9" fill="#18181A" stroke="#36363A"/><text x="1418" y="220" fill="#E4E4E7" font-family="Arial, sans-serif" font-size="12" font-weight="700">最近 14 天</text>
  <g font-family="Arial, sans-serif"><rect x="308" y="280" width="292" height="130" rx="15" fill="url(#cardBlue)" stroke="#233753"/><text x="331" y="314" fill="#C9CDD5" font-size="13" font-weight="700">总 token</text><text x="331" y="367" fill="white" font-size="29" font-weight="700">889.6M</text><text x="331" y="392" fill="#9AA5B6" font-size="12">最近 14 天 · 13 个活跃日 · 2 台设备</text>
  <rect x="615" y="280" width="292" height="130" rx="15" fill="url(#cardViolet)" stroke="#3A2B54"/><text x="638" y="314" fill="#C9CDD5" font-size="13" font-weight="700">输入与输出</text><text x="638" y="367" fill="white" font-size="29" font-weight="700">46.9M</text><text x="638" y="392" fill="#AA9EBA" font-size="12">44.2M 输入 · 2.7M 输出</text>
  <rect x="922" y="280" width="292" height="130" rx="15" fill="url(#cardOrange)" stroke="#594025"/><text x="945" y="314" fill="#C9CDD5" font-size="13" font-weight="700">缓存读取</text><text x="945" y="367" fill="white" font-size="29" font-weight="700">842.7M</text><text x="945" y="392" fill="#BAA387" font-size="12">94.7% 占总用量</text>
  <rect x="1229" y="280" width="321" height="130" rx="15" fill="url(#cardGreen)" stroke="#245044"/><text x="1252" y="314" fill="#C9CDD5" font-size="13" font-weight="700">估算费用</text><text x="1252" y="367" fill="white" font-size="29" font-weight="700">$648.23</text><text x="1252" y="392" fill="#89AC9F" font-size="12">仅供本地成本参考</text></g>
  <rect x="308" y="432" width="910" height="376" rx="16" fill="#101011" stroke="#29292C"/><text x="334" y="471" fill="white" font-family="Arial, sans-serif" font-size="17" font-weight="700">每日 token 趋势</text><text x="334" y="494" fill="#94969D" font-family="Arial, sans-serif" font-size="12">最近 14 天的真实日志汇总</text><rect x="1035" y="454" width="147" height="27" rx="8" fill="#1D1D20"/><text x="1048" y="472" fill="#E4E4E7" font-family="Arial, sans-serif" font-size="11" font-weight="700">总量　输入输出　缓存</text>
  <path d="M357 571h823M357 652h823M357 733h823" stroke="#242428" stroke-dasharray="3 6"/><path d="M357 736C403 723 433 708 470 681s72-85 114-61c42 24 68-46 129-24 61 22 72 68 133 61 61-7 73-101 131-86 58 15 87-8 126 48 39 56 59-183 110-184 51-1 58 119 67 150v151H357Z" fill="url(#blue)"/><path d="M357 736C403 723 433 708 470 681s72-85 114-61c42 24 68-46 129-24 61 22 72 68 133 61 61-7 73-101 131-86 58 15 87-8 126 48 39 56 59-183 110-184 51-1 58 119 67 150" stroke="#2563EB" stroke-width="3" stroke-linecap="round"/><g fill="#8B8E96" font-family="Arial, sans-serif" font-size="10"><text x="357" y="773">7/22</text><text x="514" y="773">7/24</text><text x="670" y="773">7/26</text><text x="828" y="773">7/29</text><text x="986" y="773">7/31</text><text x="1146" y="773">8/4</text><text x="320" y="576">340M</text><text x="320" y="657">170M</text><text x="333" y="738">0M</text></g>
  <rect x="1235" y="432" width="315" height="376" rx="16" fill="#101011" stroke="#29292C"/><text x="1260" y="471" fill="white" font-family="Arial, sans-serif" font-size="17" font-weight="700">模型分布</text><text x="1260" y="494" fill="#94969D" font-family="Arial, sans-serif" font-size="12">按 token 总量排序</text><circle cx="1392" cy="587" r="63" stroke="#1D4ED8" stroke-width="20"/><path d="M1438 630A63 63 0 0 1 1344 632" stroke="#10B981" stroke-width="20"/><path d="M1344 632A63 63 0 0 1 1331 598" stroke="#F59E0B" stroke-width="20"/><text x="1368" y="583" fill="#A3A5AC" font-family="Arial, sans-serif" font-size="11">Top 模型</text><text x="1387" y="607" fill="white" font-family="Arial, sans-serif" font-size="21" font-weight="700">4</text><g font-family="Arial, sans-serif"><text x="1260" y="697" fill="#E5E7EB" font-size="12" font-weight="700">● gpt-5.6-sol</text><text x="1497" y="697" fill="#B8BBC2" font-size="11">61.4%</text><rect x="1260" y="708" width="260" height="6" rx="3" fill="#28282C"/><rect x="1260" y="708" width="160" height="6" rx="3" fill="#2563EB"/><text x="1260" y="744" fill="#E5E7EB" font-size="12" font-weight="700">● gpt-5.6-terra</text><text x="1497" y="744" fill="#B8BBC2" font-size="11">20.9%</text><rect x="1260" y="755" width="260" height="6" rx="3" fill="#28282C"/><rect x="1260" y="755" width="54" height="6" rx="3" fill="#10B981"/></g>
</svg>
