<svg width="1440" height="900" viewBox="0 0 1440 900" fill="none" xmlns="http://www.w3.org/2000/svg">
  <defs>
    <linearGradient id="canvas" x1="0" x2="1440" y1="0" y2="900" gradientUnits="userSpaceOnUse"><stop stop-color="#F8FAFC"/><stop offset="1" stop-color="#EEF4FF"/></linearGradient>
    <linearGradient id="chart" x1="0" x2="0" y1="180" y2="390" gradientUnits="userSpaceOnUse"><stop stop-color="#2563EB" stop-opacity=".28"/><stop offset="1" stop-color="#2563EB" stop-opacity="0"/></linearGradient>
    <filter id="shadow" x="-15%" y="-15%" width="130%" height="145%"><feDropShadow dx="0" dy="18" stdDeviation="18" flood-color="#183B73" flood-opacity=".13"/></filter>
  </defs>
  <rect width="1440" height="900" fill="url(#canvas)"/>
  <rect x="62" y="56" width="1316" height="788" rx="26" fill="white" filter="url(#shadow)"/>
  <path d="M62 82c0-14.36 11.64-26 26-26h238v788H88c-14.36 0-26-11.64-26-26V82Z" fill="#0B1020"/>
  <rect x="90" y="89" width="42" height="42" rx="13" fill="white"/>
  <path d="m98 119 13-23 13 23h-6l-7-12-7 12h-6Z" fill="#0B1020"/><circle cx="124" cy="97" r="4" fill="#38D39F"/>
  <text x="145" y="108" fill="white" font-family="Arial, sans-serif" font-size="20" font-weight="700">Token Atlas</text>
  <text x="145" y="128" fill="#93A4C7" font-family="Arial, sans-serif" font-size="12">Private token intelligence</text>
  <rect x="88" y="176" width="212" height="42" rx="12" fill="#222B44"/><text x="119" y="202" fill="white" font-family="Arial, sans-serif" font-size="14" font-weight="700">Overview</text>
  <text x="119" y="254" fill="#B5C2DE" font-family="Arial, sans-serif" font-size="14">Usage trends</text><text x="119" y="304" fill="#B5C2DE" font-family="Arial, sans-serif" font-size="14">Sessions</text><text x="119" y="354" fill="#B5C2DE" font-family="Arial, sans-serif" font-size="14">Raw data</text>
  <text x="370" y="111" fill="#111827" font-family="Arial, sans-serif" font-size="19" font-weight="700">Token Atlas</text><text x="370" y="134" fill="#64748B" font-family="Arial, sans-serif" font-size="13">A private map of your Codex usage across every device.</text>
  <rect x="1126" y="91" width="112" height="32" rx="16" fill="#ECFDF5"/><circle cx="1143" cy="107" r="4" fill="#10B981"/><text x="1154" y="111" fill="#047857" font-family="Arial, sans-serif" font-size="12" font-weight="700">LOCAL DATA</text>
  <rect x="1260" y="91" width="84" height="32" rx="9" fill="#F1F5F9"/><text x="1281" y="111" fill="#334155" font-family="Arial, sans-serif" font-size="12" font-weight="700">Refresh</text>
  <rect x="370" y="170" width="230" height="118" rx="17" fill="#EFF6FF"/><text x="392" y="200" fill="#475569" font-family="Arial, sans-serif" font-size="13" font-weight="700">TOTAL TOKENS</text><text x="392" y="247" fill="#0F172A" font-family="Arial, sans-serif" font-size="34" font-weight="700">3.16B</text><text x="392" y="271" fill="#2563EB" font-family="Arial, sans-serif" font-size="12">Across 3 devices</text>
  <rect x="620" y="170" width="230" height="118" rx="17" fill="#ECFDF5"/><text x="642" y="200" fill="#475569" font-family="Arial, sans-serif" font-size="13" font-weight="700">CACHE REUSE</text><text x="642" y="247" fill="#0F172A" font-family="Arial, sans-serif" font-size="34" font-weight="700">91.2%</text><text x="642" y="271" fill="#059669" font-family="Arial, sans-serif" font-size="12">Efficient context reuse</text>
  <rect x="870" y="170" width="230" height="118" rx="17" fill="#FAF5FF"/><text x="892" y="200" fill="#475569" font-family="Arial, sans-serif" font-size="13" font-weight="700">ACTIVE DAYS</text><text x="892" y="247" fill="#0F172A" font-family="Arial, sans-serif" font-size="34" font-weight="700">19</text><text x="892" y="271" fill="#7C3AED" font-family="Arial, sans-serif" font-size="12">Last 30 days</text>
  <rect x="1120" y="170" width="224" height="118" rx="17" fill="#FFF7ED"/><text x="1142" y="200" fill="#475569" font-family="Arial, sans-serif" font-size="13" font-weight="700">EST. COST</text><text x="1142" y="247" fill="#0F172A" font-family="Arial, sans-serif" font-size="34" font-weight="700">$562</text><text x="1142" y="271" fill="#EA580C" font-family="Arial, sans-serif" font-size="12">Local estimate only</text>
  <rect x="370" y="314" width="708" height="430" rx="18" fill="white" stroke="#E2E8F0"/><text x="396" y="353" fill="#0F172A" font-family="Arial, sans-serif" font-size="17" font-weight="700">Daily token activity</text><text x="396" y="376" fill="#64748B" font-family="Arial, sans-serif" font-size="12">Aggregated use from local and imported devices</text>
  <path d="M405 650C454 620 475 575 520 590s57-110 114-82c57 28 84-50 137-17s81 83 136 28c55-55 77-159 139-117v248H405V650Z" fill="url(#chart)"/>
  <path d="M405 650C454 620 475 575 520 590s57-110 114-82c57 28 84-50 137-17s81 83 136 28c55-55 77-159 139-117" stroke="#2563EB" stroke-width="5" stroke-linecap="round"/>
  <path d="M405 450h641M405 550h641M405 650h641" stroke="#E8EEF7" stroke-dasharray="4 6"/>
  <text x="405" y="695" fill="#94A3B8" font-family="Arial, sans-serif" font-size="12">Jul 18</text><text x="608" y="695" fill="#94A3B8" font-family="Arial, sans-serif" font-size="12">Jul 25</text><text x="810" y="695" fill="#94A3B8" font-family="Arial, sans-serif" font-size="12">Aug 1</text><text x="1003" y="695" fill="#94A3B8" font-family="Arial, sans-serif" font-size="12">Aug 8</text>
  <rect x="1102" y="314" width="242" height="430" rx="18" fill="white" stroke="#E2E8F0"/><text x="1128" y="353" fill="#0F172A" font-family="Arial, sans-serif" font-size="17" font-weight="700">Device atlas</text><text x="1128" y="376" fill="#64748B" font-family="Arial, sans-serif" font-size="12">All sources at a glance</text>
  <circle cx="1143" cy="430" r="7" fill="#2563EB"/><text x="1160" y="435" fill="#334155" font-family="Arial, sans-serif" font-size="14" font-weight="700">This PC</text><text x="1160" y="454" fill="#94A3B8" font-family="Arial, sans-serif" font-size="12">603.9M tokens</text><rect x="1128" y="468" width="188" height="7" rx="3.5" fill="#E2E8F0"/><rect x="1128" y="468" width="150" height="7" rx="3.5" fill="#2563EB"/>
  <circle cx="1143" cy="522" r="7" fill="#10B981"/><text x="1160" y="527" fill="#334155" font-family="Arial, sans-serif" font-size="14" font-weight="700">Jetson Orin Nano</text><text x="1160" y="546" fill="#94A3B8" font-family="Arial, sans-serif" font-size="12">2.56B tokens</text><rect x="1128" y="560" width="188" height="7" rx="3.5" fill="#E2E8F0"/><rect x="1128" y="560" width="180" height="7" rx="3.5" fill="#10B981"/>
  <rect x="1128" y="624" width="188" height="76" rx="12" fill="#F8FAFC"/><text x="1144" y="653" fill="#475569" font-family="Arial, sans-serif" font-size="12">Last synchronized</text><text x="1144" y="681" fill="#0F172A" font-family="Arial, sans-serif" font-size="16" font-weight="700">Just now</text>
</svg>
